<?xml version="1.0" encoding="UTF-8"?>
<svg id="Layer_1" xmlns="http://www.w3.org/2000/svg" version="1.1" viewBox="0 0 125 34">
  <!-- Generator: Adobe Illustrator 29.8.2, SVG Export Plug-In . SVG Version: 2.1.1 Build 3)  -->
  <defs>
    <style>
      .st0 {
        fill: #ff4a79;
      }
    </style>
  </defs>
  <path class="st0" d="M6.8,4.6C11.7,2.6,20.6.3,26.9,2.1c3.2.9,6.2,4.4,6.7,8.1.5,3.1-.7,6.6-2.4,8.4-.1.1-.2.3-.2.5,0,0,0,.1,0,.2,2.3,5.8-1.3,8.7-5.4,9.5-4.2.8-8.2,2.2-12.1,3.8h0c-4,1.7-9.8,0-11.7-4.3-1.1-2.4-.3-6,.6-8.5.1-.3,0-.6-.2-.9-.7-1-1.3-2.1-1.7-3.4C-.8,10.5,2.4,6.4,6.8,4.6ZM21.1,11.2c-1.2-1.3-3.2-1.5-4.7,0-.3.3-.8.2-1.1,0-.9-.9-2.6-1.1-4-.6-1.2.5-2.1,1.5-2.7,3.2,0,0-1,4-1.9,6.4-1.4,4.1,4.7,5.3,5.9,1.4l1.7-6c.3-.9.7-1.6,1.5-1.4.8.2.9,1.1.5,2l-.8,3.3c-.7,2.7,3,3.4,3.8.9l1.3-4.8c.3-.9.7-1.5,1.4-1.3.7.1.9.7.6,1.6l-.7,2.8c-.5,1.6,0,3,1.6,3.2,1.8.3,2.9-.5,3.3-.8.1,0,.2-.2.2-.3,0-.3-.2-.5-.4-.5-.7,0-1.1-.1-1.2-.6-.1-.3-.2-.7,0-1.4.2-.6.6-2.3,1-3.5.4-1.3.9-2.9-.3-3.9-1-.9-2.7-.6-3.9.4-.3.2-.7.2-.9,0Z"/>
  <path class="st0" d="M23.2,33.6c5-.1,6.4-3.2,5.2-3.4-3.2-.6-16.6,3.7-5.2,3.4Z"/>
  <path class="st0" d="M5.8,1c-3.5.3-4.5,3.7-3.7,3.7,2.2,0,11.3-4.3,3.7-3.7Z"/>
  <path class="st0" d="M115.4,28.1h-3.8V10.9h3.8v2c.8-1.5,2.3-2.4,4.1-2.4,3.4,0,5.5,2.9,5.5,6.5s-2.1,6.5-5.5,6.5-3.2-.9-4.1-2.4v6.9ZM115.4,17c0,1.7,1.1,3.2,2.9,3.2s2.9-1.5,2.9-3.2-1-3.2-2.9-3.2-2.9,1.5-2.9,3.2Z"/>
  <path class="st0" d="M105.9,10.9h3.8v12.2h-3.8v-1.6c-.8,1.3-2.1,2-3.7,2-2.3,0-4.3-1.6-4.3-5.2v-7.4h3.8v6.9c0,1.6.8,2.5,2.1,2.5s2.1-.9,2.1-2.8v-6.5Z"/>
  <path class="st0" d="M90.1,14h-2.3v-3.1h1.5c.7,0,1.1-.4,1.1-1.1v-2.3h3.4v3.4h2.7v3.1h-2.7v4.4c0,1.5,1.3,2.1,2.7,1.5v3.2c-.3,0-.9.2-1.5.2-3,0-5-1-5-5.3v-4.1Z"/>
  <path class="st0" d="M74.7,17c0-3.8,2.4-6.5,6.7-6.5s6.3,1.9,6.3,6.1,0,1,0,1.4h-9.1c.3,1.5,1.3,2.5,3,2.5s1.9-.7,2.2-1.5l3.7.8c-.7,1.8-2.5,3.7-6,3.7s-6.7-2.9-6.7-6.5ZM78.5,15.7h5.4c-.2-1.4-1.1-2.2-2.5-2.2s-2.6.9-2.9,2.2Z"/>
  <path class="st0" d="M61.1,17c0-3.8,2.4-6.5,6.7-6.5s6.3,1.9,6.3,6.1,0,1,0,1.4h-9.1c.3,1.5,1.3,2.5,3,2.5s1.9-.7,2.2-1.5l3.7.8c-.7,1.8-2.5,3.7-6,3.7s-6.7-2.9-6.7-6.5ZM64.9,15.7h5.4c-.2-1.4-1.1-2.2-2.5-2.2s-2.6.9-2.9,2.2Z"/>
  <path class="st0" d="M45.7,23.1h-3.8v-12.2h3.8v1.6c.7-1.3,1.9-2,3.3-2s2.8.6,3.5,2.2c.9-1.6,2.3-2.2,3.7-2.2,2.1,0,4,1.2,4,4.8v7.8h-3.8v-7.4c0-1.3-.7-1.9-1.7-1.9s-1.8.6-1.8,2.3v7.1h-3.8v-7.4c0-1.3-.7-1.9-1.7-1.9s-1.8.6-1.8,2.3v7.1Z"/>
</svg>